PathFileType	4	(X/Y/Z)	./resultDataOpenSim/trcMotMarkerGrf/sub09/qtm-03-01.trc
DataRate	CameraRate	NumFrames	NumMarkers	Units	OrigDataRate	OrigDataStartFrame	OrigNumFrames
250.000000	250.000000	6	24	m	250.000000	1	477
Frame#	Time	L.Toe.Tip			R.Toe.Tip			L.Ankle.Lat			R.Ankle.Lat			L.Ankle.Med			R.Ankle.Med			L.Heel			R.Heel			L.Knee.Lat			R.Knee.Lat			L.Knee.Med			R.Knee.Med			L.Thigh.Upper			R.Thigh.Upper			L.ASIS			R.ASIS			V.Sacral			L.Acromium			R.Acromium			C7			L.Elbow			R.Elbow			L.Wrist.Lat			R.Wrist.Lat
		X1	Y1	Z1	X2	Y2	Z2	X3	Y3	Z3	X4	Y4	Z4	X5	Y5	Z5	X6	Y6	Z6	X7	Y7	Z7	X8	Y8	Z8	X9	Y9	Z9	X10	Y10	Z10	X11	Y11	Z11	X12	Y12	Z12	X13	Y13	Z13	X14	Y14	Z14	X15	Y15	Z15	X16	Y16	Z16	X17	Y17	Z17	X18	Y18	Z18	X19	Y19	Z19	X20	Y20	Z20	X21	Y21	Z21	X22	Y22	Z22	X23	Y23	Z23	X24	Y24	Z24

1	0	-1.5258951	0.03618908	-0.061164471	-0.89403344	0.099592006	0.086444955	-1.6747153	0.085023465	-0.080856042	-1.0442243	0.071985864	0.11162163	-1.6395612	0.098942741	0.010270297	-1.0374403	0.1115193	0.020860476	NaN	NaN	NaN	-1.092279	0.029420983	0.05601927	-1.5129792	0.47146952	-0.1438601	-1.1410291	0.52127581	0.15198333	-1.5066064	0.46958103	-0.017134443	-1.1396285	0.50066224	0.024236315	-1.3852514	0.87099621	-0.18512141	-1.35182	0.86822006	0.18468277	-1.2756601	0.93941879	-0.1352274	-1.268485	0.94871733	0.10719788	-1.4327775	1.0109572	-0.0061144937	-1.2222432	1.3952648	-0.16961356	-1.2623977	1.4026581	0.15631833	-1.3041672	1.45524	-0.011524077	-1.326051	1.0352675	-0.26926839	-1.4530039	1.0908367	0.22875551	-1.0688003	0.94464105	-0.22826704	-1.3744942	0.83446705	0.27380197
2	0.004	-1.5258484	0.036156132	-0.061220048	-0.879886	0.10350873	0.086962838	-1.6742766	0.085956994	-0.081049894	-1.0291952	0.072621182	0.1121496	-1.6388025	0.099665256	0.010006667	-1.0231984	0.11229405	0.021405216	NaN	NaN	NaN	-1.0771154	0.029464202	0.055874935	-1.5097	0.47130056	-0.1438656	-1.1351346	0.51983046	0.1522716	-1.5037279	0.46948159	-0.017049351	-1.1333943	0.49933411	0.024509834	-1.3794879	0.86990039	-0.1848407	-1.3456471	0.86669508	0.18497036	-1.2696776	0.93805924	-0.13499453	-1.2622831	0.94737865	0.10745483	-1.426662	1.0095317	-0.0058610646	-1.2163704	1.3940771	-0.16917236	-1.2569413	1.4012965	0.15675983	-1.2985934	1.4539163	-0.011350334	-1.3193714	1.0337179	-0.26853526	-1.4454602	1.0892114	0.2285209	-1.0617372	0.94455913	-0.2275339	-1.369381	0.83289364	0.27431949
3	0.008	-1.5257905	0.036127756	-0.061278866	-0.8659184	0.10738357	0.087481278	-1.6737932	0.086936902	-0.081285307	-1.014301	0.073367232	0.11271905	-1.6380616	0.10042434	0.0096981821	-1.009226	0.11308699	0.021941283	NaN	NaN	NaN	-1.0613971	0.02917296	0.056964926	-1.506249	0.47111774	-0.14389636	-1.1291784	0.51837976	0.15258959	-1.5005961	0.46937062	-0.016995216	-1.1271648	0.49800286	0.024758383	-1.373711	0.86880176	-0.18454696	-1.3394489	0.86517166	0.18525591	-1.2636831	0.93670556	-0.1347956	-1.2559863	0.94604246	0.10771027	-1.420537	1.0081013	-0.0055825252	-1.2104857	1.3928963	-0.16870279	-1.2514483	1.3999424	0.15719869	-1.2929529	1.4526188	-0.011009902	-1.3127365	1.0322283	-0.26794683	-1.438546	1.0876055	0.22829336	-1.0546988	0.94443434	-0.22679247	-1.364192	0.83132052	0.27483021
4	0.012	-1.5257155	0.036103183	-0.06134263	-0.85228404	0.11117941	0.087917042	-1.6732419	0.087973487	-0.081586665	-0.99943363	0.074367117	0.11343743	-1.6373618	0.10123045	0.0093339079	-0.99566591	0.11391098	0.022459675	NaN	NaN	NaN	-1.0455819	0.028723594	0.058838638	-1.5025311	0.47091362	-0.14394758	-1.1231081	0.51693352	0.15294277	-1.4971066	0.46923291	-0.016978044	-1.1209285	0.49667464	0.024969531	-1.3679015	0.86769638	-0.18422486	-1.3331624	0.86365269	0.18554089	-1.25765	0.9353625	-0.134632	-1.2495901	0.94471389	0.10795918	-1.4143974	1.0066591	-0.0052394905	-1.2045563	1.3917232	-0.16820053	-1.2458965	1.3985979	0.15763601	-1.2871252	1.4513658	-0.01022263	-1.3061417	1.0308082	-0.26749669	-1.4323074	1.086014	0.22807244	-1.0476939	0.94423635	-0.22604242	-1.3588899	0.82974875	0.27532512
5	0.016	-1.5256234	0.036079165	-0.061411093	-0.83911553	0.11483767	0.088200035	-1.6726145	0.089054142	-0.081962399	-0.98447883	0.075704066	0.11437619	-1.6366856	0.10207213	0.0089284849	-0.98256648	0.11476187	0.022946908	NaN	NaN	NaN	-1.0304461	0.028425705	0.060465626	-1.4985297	0.4706818	-0.14400233	-1.1168915	0.5155367	0.15332389	-1.4932752	0.46905255	-0.016991107	-1.1146928	0.49536031	0.025154356	-1.3620529	0.86658701	-0.18386331	-1.3267475	0.86214522	0.18582379	-1.25157	0.93404155	-0.13448563	-1.24316	0.94340403	0.10819452	-1.4082437	1.0052163	-0.0048206376	-1.1985556	1.3905594	-0.16767783	-1.2402895	1.3972645	0.15807597	-1.2810222	1.4501628	-0.0087769675	-1.2995673	1.0294312	-0.26708166	-1.4264011	1.0844277	0.22785731	-1.0407364	0.94395475	-0.22529532	-1.3534773	0.82818251	0.27579998
6	0.02	-1.5255176	0.036054685	-0.061481893	-0.82649792	0.11826814	0.088396208	-1.6719072	0.090179981	-0.082408892	-0.9697461	0.077238287	0.11537119	-1.6359696	0.10295093	0.0084934091	-0.96995853	0.11560918	0.023384969	NaN	NaN	NaN	-1.0162442	0.028316836	0.061537317	-1.4942636	0.47040965	-0.14404985	-1.1104985	0.51423563	0.15372516	-1.4891643	0.46880902	-0.017032254	-1.1084716	0.49406248	0.025343859	-1.3561598	0.86548061	-0.18345779	-1.3202028	0.86065659	0.18610174	-1.2454488	0.93275158	-0.13434543	-1.2367395	0.94211675	0.10841595	-1.40206	1.0037947	-0.0043585137	-1.1924737	1.3894062	-0.16714427	-1.2346342	1.3959446	0.15852614	-1.2747258	1.4489932	-0.0069068462	-1.2929987	1.0280726	-0.26661489	-1.4205278	1.0828502	0.22765666	-1.0338332	0.9435902	-0.22456289	-1.3479704	0.82662803	0.27626078
